<svg width="6" height="6" viewBox="0 0 6 6" fill="none" xmlns="http://www.w3.org/2000/svg">
<g clip-path="url(#clip0_17_194)">
<path d="M0 0H6V6H0V0ZM5.5085 4.569C5.46475 4.29525 5.2865 4.06525 4.75775 3.85075C4.57375 3.7645 4.36925 3.7045 4.3085 3.56575C4.28575 3.48325 4.28225 3.43825 4.297 3.3895C4.3345 3.228 4.52575 3.1795 4.67575 3.2245C4.77325 3.2545 4.86325 3.3295 4.91975 3.4495C5.17825 3.2805 5.17825 3.2805 5.3585 3.16825C5.291 3.06325 5.2575 3.018 5.212 2.97325C5.0545 2.797 4.84475 2.707 4.5035 2.71475L4.32725 2.737C4.15825 2.77825 3.99725 2.86825 3.89975 2.98825C3.61475 3.311 3.697 3.8735 4.042 4.106C4.38325 4.361 4.88225 4.417 4.946 4.65725C5.006 4.94975 4.7285 5.0435 4.4545 5.00975C4.25175 4.96475 4.1395 4.86325 4.01575 4.67575L3.55825 4.9385C3.61075 5.0585 3.67075 5.11075 3.76075 5.21575C4.19575 5.65475 5.28325 5.63225 5.4785 4.96475C5.48575 4.94225 5.5385 4.7885 5.497 4.55225L5.5085 4.569ZM3.26275 2.75775H2.70075C2.70075 3.24225 2.6985 3.72375 2.6985 4.209C2.6985 4.517 2.71425 4.79975 2.664 4.88675C2.5815 5.059 2.369 5.037 2.2725 5.00675C2.1735 4.95775 2.12325 4.89025 2.065 4.793C2.04925 4.76675 2.0375 4.744 2.03325 4.744L1.577 5.02525C1.65325 5.18275 1.7645 5.31825 1.908 5.4045C2.12175 5.532 2.409 5.57325 2.70975 5.50575C2.9055 5.44925 3.07425 5.333 3.1625 5.153C3.29 4.9205 3.263 4.6355 3.26175 4.3165C3.26475 3.803 3.26175 3.28925 3.26175 2.77175L3.26275 2.75775Z" fill="black"/>
</g>
<defs>
<clipPath id="clip0_17_194">
<rect width="6" height="6" fill="white"/>
</clipPath>
</defs>
</svg>
