<svg width="6" height="6" viewBox="0 0 6 6" fill="none" xmlns="http://www.w3.org/2000/svg">
<g clip-path="url(#clip0_17_178)">
<path d="M0.97248 3.91811L1.56373 0.115356C1.56797 0.087148 1.581 0.0609978 1.60098 0.0406308C1.62095 0.0202639 1.64684 0.00671924 1.67496 0.00192646C1.70308 -0.00286631 1.73199 0.00133731 1.75758 0.0139385C1.78317 0.0265396 1.80413 0.0468955 1.81748 0.072106L2.45323 1.26486L0.97248 3.91811ZM5.17098 4.84111L4.60848 1.34111C4.60462 1.31637 4.59396 1.2932 4.5777 1.27417C4.56143 1.25514 4.54019 1.24102 4.51635 1.23336C4.49252 1.22571 4.46702 1.22484 4.44272 1.23084C4.41842 1.23685 4.39626 1.24949 4.37873 1.26736L0.828979 4.84136L2.79298 5.94811C2.85359 5.98216 2.92195 6.00005 2.99148 6.00005C3.06101 6.00005 3.12936 5.98216 3.18998 5.94811L5.17098 4.84111ZM3.57498 1.78686L3.11998 0.916356C3.1085 0.894465 3.09125 0.876131 3.0701 0.86334C3.04895 0.850548 3.0247 0.843787 2.99998 0.843787C2.97526 0.843787 2.95101 0.850548 2.92986 0.86334C2.90871 0.876131 2.89146 0.894465 2.87998 0.916356L0.882479 4.49611L3.57498 1.78686Z" fill="black"/>
</g>
<defs>
<clipPath id="clip0_17_178">
<rect width="6" height="6" fill="white"/>
</clipPath>
</defs>
</svg>
