<svg width="6" height="6" viewBox="0 0 6 6" fill="none" xmlns="http://www.w3.org/2000/svg">
<g clip-path="url(#clip0_17_188)">
<path d="M3.5575 3.00111C3.5575 3.14933 3.49864 3.29147 3.39386 3.3963C3.28908 3.50112 3.14696 3.56005 2.99875 3.56011C2.85049 3.56011 2.70831 3.50122 2.60348 3.39639C2.49864 3.29155 2.43975 3.14937 2.43975 3.00111C2.43975 2.8529 2.49861 2.71075 2.60339 2.60593C2.70817 2.5011 2.85029 2.44218 2.9985 2.44211C3.14676 2.44211 3.28894 2.50101 3.39377 2.60584C3.49861 2.71067 3.5575 2.85286 3.5575 3.00111ZM4.2195 0.328613C3.883 0.328613 3.44275 0.568613 2.9975 0.984113C2.5525 0.570863 2.112 0.333613 1.77575 0.333613C1.67325 0.333613 1.58 0.356863 1.49925 0.403113C1.1555 0.601363 1.0785 1.21911 1.256 1.99436C0.495 2.22936 0 2.60511 0 3.00111C0 3.39861 0.4975 3.77536 1.26075 4.00861C1.08475 4.78686 1.16325 5.40561 1.50775 5.60361C1.58775 5.65036 1.68025 5.67236 1.78325 5.67236C2.1195 5.67236 2.56 5.43236 3.00525 5.01636C3.45025 5.42986 3.89075 5.66711 4.227 5.66711C4.3295 5.66711 4.42275 5.64461 4.5035 5.59836C4.847 5.40036 4.92425 4.78261 4.74675 4.00711C5.505 3.77411 6 3.39761 6 3.00111C6 2.60361 5.5025 2.22686 4.73925 1.99311C4.91525 1.21561 4.83675 0.596363 4.49225 0.398113C4.41275 0.352113 4.3205 0.328863 4.2195 0.328613ZM4.21825 0.601113V0.602613C4.2745 0.602613 4.31975 0.613613 4.35775 0.634363C4.52425 0.729863 4.5965 1.09311 4.54025 1.56036C4.52675 1.67536 4.50475 1.79661 4.47775 1.92036C4.23775 1.86136 3.97625 1.81611 3.701 1.78686C3.536 1.56061 3.36475 1.35511 3.19225 1.17511C3.59025 0.805113 3.964 0.602113 4.2185 0.601363L4.21825 0.601113ZM1.77575 0.606113C2.02875 0.606113 2.40425 0.808113 2.80325 1.17611C2.63175 1.35611 2.46075 1.56036 2.29825 1.78661C2.0215 1.81586 1.75975 1.86111 1.52 1.92111C1.492 1.79861 1.47125 1.68011 1.4565 1.56611C1.399 1.09911 1.47 0.736113 1.635 0.639363C1.6825 0.616863 1.735 0.607363 1.77575 0.606113ZM2.99625 1.36861C3.11 1.48561 3.22375 1.61661 3.33625 1.75961C3.22625 1.75461 3.11375 1.75111 3 1.75111C2.885 1.75111 2.77125 1.75361 2.66 1.75961C2.77 1.61661 2.88375 1.48586 2.99625 1.36861ZM3 2.02511C3.185 2.02511 3.36925 2.03361 3.5505 2.04836C3.652 2.19386 3.751 2.34911 3.84625 2.51336C3.93925 2.67336 4.02375 2.83586 4.10075 2.99986C4.02375 3.16361 3.93925 3.32736 3.8475 3.48736C3.7525 3.65236 3.65425 3.80936 3.5525 3.95486C3.3705 3.97061 3.186 3.97936 3 3.97936C2.815 3.97936 2.63075 3.97061 2.4495 3.95611C2.348 3.81061 2.249 3.65511 2.15375 3.49111C2.06075 3.33111 1.97625 3.16861 1.89925 3.00461C1.975 2.84036 2.06075 2.67636 2.1525 2.51611C2.2475 2.35111 2.34575 2.19461 2.4475 2.04911C2.6295 2.03311 2.814 2.02461 3 2.02461V2.02511ZM2.09125 2.08861C2.03125 2.18286 1.97125 2.27936 1.91525 2.37861C1.859 2.47611 1.8065 2.57411 1.7565 2.67211C1.69025 2.50811 1.634 2.34461 1.5875 2.18536C1.7475 2.14786 1.91625 2.11436 2.09125 2.08861ZM3.90625 2.08861C4.08 2.11436 4.2475 2.14611 4.40775 2.18536C4.36275 2.34336 4.3065 2.50586 4.24275 2.66861C4.19275 2.57111 4.14025 2.47286 4.08275 2.37511C4.0265 2.27711 3.9665 2.18161 3.9065 2.08861H3.90625ZM4.672 2.25736C4.793 2.29486 4.908 2.33661 5.01575 2.38186C5.44875 2.56686 5.72875 2.80886 5.72875 3.00086C5.7275 3.19286 5.4475 3.43586 5.0145 3.61961C4.9095 3.66461 4.7945 3.70511 4.67575 3.74286C4.60575 3.50336 4.51425 3.25386 4.40075 2.99786C4.51325 2.74361 4.60325 2.49536 4.672 2.25686V2.25736ZM1.32325 2.25836C1.39275 2.49836 1.4845 2.74761 1.59825 3.00336C1.48575 3.25761 1.39525 3.50586 1.32675 3.74436C1.20575 3.70686 1.09075 3.66486 0.98425 3.61936C0.55125 3.43511 0.27125 3.19286 0.27125 3.00086C0.27125 2.80886 0.55125 2.56536 0.98425 2.38186C1.08925 2.33686 1.20425 2.29636 1.32325 2.25836ZM4.24275 3.32836C4.309 3.49261 4.36525 3.65636 4.41175 3.81536C4.25175 3.85461 4.08275 3.88786 3.90775 3.91286C3.96775 3.81911 4.02775 3.72236 4.084 3.62336C4.14025 3.52586 4.1925 3.42636 4.24275 3.32836ZM1.7565 3.33336C1.8065 3.43136 1.859 3.52911 1.9165 3.62711C1.974 3.72461 2.03275 3.82011 2.09275 3.91286C1.919 3.88736 1.7515 3.85536 1.59125 3.81636C1.63625 3.65886 1.69275 3.49586 1.75625 3.33311L1.7565 3.33336ZM4.48 4.08011C4.508 4.20336 4.53 4.32211 4.5435 4.43586C4.601 4.90286 4.53 5.26586 4.365 5.36286C4.32825 5.38536 4.2805 5.39486 4.22425 5.39486C3.97125 5.39486 3.59575 5.19311 3.19675 4.82486C3.36825 4.64486 3.53925 4.44086 3.70175 4.21486C3.9785 4.18536 4.24025 4.14011 4.48 4.08011ZM1.5225 4.08261C1.7625 4.14111 2.024 4.18636 2.29925 4.21561C2.46425 4.44186 2.6355 4.64736 2.808 4.82711C2.40925 5.19786 2.035 5.40086 1.7805 5.40086C1.7255 5.39961 1.679 5.38836 1.64225 5.36786C1.47575 5.27286 1.4035 4.90936 1.45975 4.44211C1.47325 4.32711 1.4955 4.20611 1.5225 4.08261ZM2.6625 4.24261C2.7725 4.24761 2.885 4.25111 2.99875 4.25111C3.11375 4.25111 3.2275 4.24861 3.33875 4.24261C3.22875 4.38561 3.115 4.51636 3.0025 4.63386C2.88875 4.51636 2.775 4.38561 2.6625 4.24261Z" fill="#383D4A"/>
</g>
<defs>
<clipPath id="clip0_17_188">
<rect width="6" height="6" fill="white"/>
</clipPath>
</defs>
</svg>
