<svg width="104" height="104" viewBox="0 0 104 104" fill="none" xmlns="http://www.w3.org/2000/svg">
<path d="M43.3202 96.315C43.2787 97.1536 43.8679 97.7493 44.9246 97.9137C46.0246 98.0849 46.7113 97.6728 46.8339 96.9803C46.9655 96.2299 46.2235 95.7587 45.3576 95.4164L44.4528 95.0384C42.7211 94.3539 41.5168 93.2325 41.7893 91.4812C42.0889 89.5561 43.7834 88.5745 46.3309 88.9708C48.8638 89.365 50.3025 90.7896 50.0114 93.0421L47.8981 92.7133C47.9902 91.6455 47.234 90.9793 46.076 90.7991C44.9326 90.6212 44.111 91.0419 43.9894 91.8235C43.8791 92.5327 44.4786 92.967 45.577 93.4344L46.6777 93.8873C48.376 94.5963 49.3242 95.6481 49.0855 97.1824C48.7882 99.093 46.9132 100.091 44.6263 99.7352C42.3104 99.3749 40.9766 97.8479 41.2359 95.9907L43.3202 96.315Z" fill="white"/>
<path d="M33.128 84.3405C35.2327 85.5583 35.7336 87.676 34.4717 89.8567C33.2392 91.9867 31.1042 92.6638 29.0883 91.4973C27.2752 90.4481 26.5155 88.4854 27.8728 86.1398L28.1809 85.6073L32.8847 88.3291C33.4863 87.2895 33.2392 86.2834 32.2756 85.7258C31.6417 85.359 31.0239 85.3738 30.5916 85.6821L28.8039 84.6477C29.8038 83.5339 31.4291 83.3574 33.128 84.3405ZM32.2024 89.5083L29.2736 87.8135C28.7894 88.6503 29.0278 89.5837 29.8646 90.0679C30.7268 90.5668 31.7122 90.2823 32.2024 89.5083Z" fill="white"/>
<path d="M19.2329 76.8056L15.7045 79.7105L14.3266 78.0367L20.4673 72.9812L21.7894 74.587L20.6812 75.4995L20.737 75.5673C21.6822 75.2635 22.6972 75.5284 23.4607 76.4557C24.4755 77.6884 24.2937 79.2421 22.8575 80.4246L18.9446 83.646L17.5666 81.9723L21.1855 78.9929C21.9093 78.397 22.0284 77.5969 21.4884 76.941C20.9857 76.3303 20.0698 76.1166 19.2329 76.8056Z" fill="white"/>
<path d="M12.3422 66.9516L16.6916 65.4553L17.3969 67.5054L9.87538 70.0928L9.20349 68.1398L10.5194 67.6871L10.4908 67.604C9.49902 67.5579 8.68242 66.9403 8.30121 65.8322C7.76275 64.2669 8.47194 62.8611 10.2359 62.2698L15.0286 60.6211L15.729 62.6573L11.2965 64.1821C10.3684 64.5014 9.99068 65.2045 10.2814 66.0495C10.5768 66.9083 11.3448 67.2947 12.3422 66.9516Z" fill="white"/>
<path d="M17.3084 50.998C17.223 53.1936 16.1899 54.5021 14.6771 54.5752L14.7603 52.4382C15.3942 52.3455 15.7103 51.7568 15.7439 50.8932C15.7832 49.8832 15.3849 49.1934 14.2725 49.1501L12.8234 49.0937L12.8194 49.1962C13.4521 49.514 14.0688 50.2416 14.0192 51.5151C13.9492 53.3155 12.6346 54.701 9.98521 54.5979C7.29194 54.4932 6.01745 52.963 6.08577 51.2065C6.13759 49.8745 6.95306 49.2612 7.6085 48.9935L7.61191 48.9057L6.27991 48.8538L6.36361 46.7022L14.3995 47.0148C16.4195 47.0933 17.3961 48.7439 17.3084 50.998ZM12.4207 50.7786C12.4628 49.6954 11.6378 49.0476 10.2326 48.993C8.81275 48.9377 7.88131 49.5172 7.83918 50.6004C7.79647 51.6982 8.72512 52.3207 10.101 52.3742C11.4769 52.4277 12.378 51.8764 12.4207 50.7786Z" fill="white"/>
<path d="M6.07764 35.171L7.31867 32.7455L15.0627 33.4004L15.1161 33.2961L10.0543 27.3988L11.2953 24.9733L20.7367 29.804L19.7626 31.7079L13.5813 28.5453L13.5413 28.6235L18.4224 34.2308L17.7552 35.5349L10.3259 34.8436L10.2859 34.9218L16.4932 38.0978L15.5191 40.0017L6.07764 35.171Z" fill="white"/>
<path d="M25.5952 24.6653L20.2293 18.7938L21.8297 17.3312L27.1955 23.2028L25.5952 24.6653ZM20.3279 17.2948C19.8413 17.7394 19.116 17.7275 18.7109 17.2842C18.2958 16.83 18.3491 16.1066 18.8357 15.662C19.3115 15.2272 20.0367 15.2391 20.4518 15.6932C20.8569 16.1366 20.8036 16.86 20.3279 17.2948Z" fill="white"/>
<path d="M29.488 8.89019L30.4293 13.1481L29.0746 13.907L27.6733 9.9068L29.488 8.89019Z" fill="white"/>
<path d="M43.4548 9.23093C43.2491 8.70628 42.6839 8.45589 41.9829 8.61045C41.2963 8.76185 40.8396 9.20756 40.958 9.67646C41.0194 10.0229 41.3654 10.2316 42.1296 10.2281L43.5803 10.2083C45.1517 10.1918 46.0295 10.7033 46.2898 11.8159C46.613 13.3497 45.4668 14.6824 43.4069 15.1366C41.3041 15.6003 39.8657 14.9274 39.3597 13.4489L41.4912 12.979C41.7269 13.572 42.297 13.7763 43.0694 13.606C43.8419 13.4357 44.2875 13.0074 44.1771 12.5067C44.0888 12.1062 43.7061 11.9356 42.9419 11.9391L41.5977 11.9655C40.0612 12.0042 39.1184 11.4021 38.8804 10.2546C38.5381 8.77001 39.6205 7.55633 41.6232 7.11475C43.5829 6.68263 45.0038 7.34435 45.4432 8.79251L43.4548 9.23093Z" fill="white"/>
<path d="M62.2258 15.2027L66.1889 5.36557L70.0477 6.92015C72.2895 7.82335 73.0139 9.71021 72.2311 11.6532C71.4374 13.6233 69.5911 14.443 67.322 13.5288L65.5557 12.8172L64.2639 16.0238L62.2258 15.2027ZM66.218 11.1732L67.6583 11.7534C68.8676 12.2406 69.7255 11.7966 70.1251 10.8047C70.5192 9.82645 70.2032 8.92529 68.9939 8.43812L67.5537 7.85788L66.218 11.1732Z" fill="white"/>
<path d="M77.5873 24.2822C75.8348 22.6391 75.877 20.4096 77.5602 18.6143C79.2434 16.8191 81.4555 16.6441 83.208 18.2873C84.9606 19.9304 84.9391 22.1592 83.2559 23.9545C81.5727 25.7498 79.3399 25.9254 77.5873 24.2822ZM78.7502 23.0633C79.5624 23.8248 80.6905 23.4568 81.6423 22.4416C82.6041 21.4158 82.8987 20.2663 82.0866 19.5048C81.2637 18.7334 80.1249 19.0913 79.1631 20.1172C78.2113 21.1324 77.9274 22.2919 78.7502 23.0633Z" fill="white"/>
<path d="M84.0651 31.8241L91.0514 28.0215L92.0528 29.8613L90.8434 30.5196L90.8854 30.5968C91.8875 30.3849 92.688 30.7831 93.1151 31.5679C93.2202 31.7609 93.3275 32.0194 93.3799 32.2077L91.6816 33.1321C91.635 32.9239 91.4904 32.5357 91.3434 32.2655C90.8742 31.4034 89.9263 31.1021 89.0772 31.5643L85.1016 33.7283L84.0651 31.8241Z" fill="white"/>
<path d="M97.0046 43.8882L95.417 44.2392L95.0944 42.7803L91.3041 43.6184C90.6891 43.7543 90.5982 44.0895 90.6788 44.5217C90.7262 44.7363 90.8227 45.105 90.9083 45.3561L89.2348 45.7261C89.1413 45.5068 89.0305 45.1412 88.9135 44.612C88.5751 43.0816 89.0308 41.8857 90.5357 41.5679L94.6264 40.6635L94.3892 39.5907L95.9768 39.2397L96.214 40.3124L98.0734 39.9013L98.5415 42.0181L96.6821 42.4293L97.0046 43.8882Z" fill="white"/>
<path d="M97.4196 56.7365L95.7969 56.6337L95.8968 55.0549L89.5814 54.6549L89.7184 52.4913L96.0339 52.8912L96.1052 51.7656L97.7279 51.8683L97.6566 52.994L98.256 53.032C99.9226 53.1375 100.736 54.2018 100.635 55.7953C100.603 56.2923 100.534 56.6989 100.422 57.0734L98.7845 56.9697C98.8332 56.6646 98.8626 56.4316 98.87 56.3146C98.9145 55.6129 98.6599 55.2299 98.002 55.1882L97.5196 55.1576L97.4196 56.7365Z" fill="white"/>
<path d="M86.8397 65.7295C87.7362 63.5007 89.8294 62.7321 92.1126 63.6504C94.3958 64.5687 95.3604 66.5671 94.464 68.7959C93.5675 71.0248 91.4824 71.8124 89.1992 70.8941C86.916 69.9758 85.9433 67.9584 86.8397 65.7295ZM88.3972 66.3717C87.9818 67.4046 88.7335 68.3227 90.0246 68.8419C91.3293 69.3667 92.5074 69.2247 92.9228 68.1919C93.3437 67.1454 92.5974 66.2137 91.2927 65.689C90.0016 65.1697 88.818 65.3252 88.3972 66.3717Z" fill="white"/>
<path d="M89.019 82.8275L80.746 76.1918L82.1024 74.5007L90.3755 81.1364L89.019 82.8275Z" fill="white"/>
<path d="M76.1314 80.7774L81.0395 87.0366L79.3335 88.3744L74.4253 82.1151L76.1314 80.7774ZM80.8282 88.5239C81.347 88.1172 82.0693 88.1837 82.4399 88.6563C82.8195 89.1404 82.7118 89.8578 82.1931 90.2645C81.6859 90.6622 80.9636 90.5957 80.584 90.1116C80.2134 89.6389 80.321 88.9216 80.8282 88.5239Z" fill="white"/>
<path d="M65.6399 86.7821C67.8785 85.9103 69.8715 86.9105 70.7645 89.2037C71.6576 91.4969 70.8607 93.5679 68.6221 94.4397C66.3836 95.3115 64.3823 94.3303 63.4892 92.0371C62.5961 89.7439 63.4013 87.654 65.6399 86.7821ZM66.2376 88.3572C65.2002 88.7612 65.0453 89.9377 65.5503 91.2344C66.0606 92.5448 66.9704 93.3066 68.0078 92.9026C69.0588 92.4933 69.2274 91.3115 68.7171 90.0011C68.212 88.7044 67.2886 87.9479 66.2376 88.3572Z" fill="white"/>
</svg>
